# xmcd
#
# Track frame offsets:
#	150
#	15035
#	26213
#	41157
#	63121
#	85192
#	102490
#	116086
#	129588
#	149500
#	177509
#	192936
#
# Disc length: 2800 seconds
#
# Revision: 1
# Processed by: cddbd v1.5.1PL2 Copyright (c) Steve Scherf et al.
# Submitted via: audiograbber 1.83.01
#
DISCID=a50aee0c
DTITLE=Alaska - 1994-08-13 - 15 Mile House - Owings Mills MD
DYEAR=1994
DGENRE=Progressive Rock
TTITLE0=For The Moment
TTITLE1=Mississippi Queen
TTITLE2=The Royal Road
TTITLE3=Every Word, Every Deed
TTITLE4=Hunger
TTITLE5=Do You Feel Like We Do
TTITLE6=Superstition
TTITLE7=Throw The Horse Over The Fence Some Hay (Oncet)
TTITLE8=Frankenstein
TTITLE9=Cliffs Of Dover
TTITLE10=Seasonal Changes
TTITLE11=Evenflow
EXTD=
EXTT0=
EXTT1=
EXTT2=
EXTT3=
EXTT4=
EXTT5=
EXTT6=
EXTT7=
EXTT8=
EXTT9=
EXTT10=
EXTT11=
PLAYORDER=
